# xmcd CD database file
#
# Track frame offsets:
#	150
#	14687
#	30462
#	45675
#	63450
#	84350
#	101287
#	117575
#	133125
#	147887
#	163850
#	177275
#	193525
#	209525
#	225700
#	242562
#	259637
#	274512
#	290712
#	308887
#
# Disc length: 4346 seconds
#
# Revision: 2
# Processed by: cddbd v1.4b41PL1 Copyright (c) Steve Scherf et al.
# Submitted via: Feurio! 1.51.7ß - http://www.feurio.com
#
DISCID=2310f814
DTITLE=Various Artist - Dance Now 2000/2
DYEAR=1900
DGENRE=
TTITLE0=Bombfunk MC´s - B-Boys and Flygirls
TTITLE1=The Underdog Project - Summer Jam
TTITLE2=Mauro Picotto - Komodo
TTITLE3=Paola and Chiara - Esta Vida Nueva (Vamos A Bailar)
TTITLE4=Craig David - 7 Days
TTITLE5=Cosmic Gate - Somewhere Over The Rainbow
TTITLE6=Kenny Blake - Tom´s Diner
TTITLE7=Beam and Yanou - Sound Of Love
TTITLE8=C.O.P. Project - Pornostar
TTITLE9=Bad Habit Boys - Rock Ya
TTITLE10=Re-Flex - Lui
TTITLE11=Aquagen and Ingo Appelt - Tanz Für Mich
TTITLE12=C.J. Stone - Infinity
TTITLE13=Rimini Project - Wake Up
TTITLE14=Snatch - Let Me Love You Boy
TTITLE15=Sin Plomo - Why Can´t We Live Together
TTITLE16=Black Legend - You See The Trouble With Me
TTITLE17=Madison Avenue - Who The Hell Are You?
TTITLE18=Anastacia - I´m Outta Love
TTITLE19=Destiny´s - Jumpin´ Jumpin´
EXTD=
EXTT0=
EXTT1=
EXTT2=
EXTT3=
EXTT4=
EXTT5=
EXTT6=
EXTT7=
EXTT8=
EXTT9=
EXTT10=
EXTT11=
EXTT12=
EXTT13=
EXTT14=
EXTT15=
EXTT16=
EXTT17=
EXTT18=
EXTT19=
PLAYORDER=
